<svg width="512" height="512" xmlns="http://www.w3.org/2000/svg">

 <g>
  <title>background</title>
  <rect fill="none" id="canvas_background" height="402" width="582" y="-1" x="-1"/>
 </g>
 <g>
  <title>Layer 1</title>
  <path id="svg_2" fill-rule="evenodd" fill="#333333" d="m256.230011,512c140.579987,0 255.769989,-115.190002 255.769989,-255.769989c0,-141.046013 -115.190002,-256.230011 -255.769989,-256.230011c-141.046013,0 -256.230011,115.183998 -256.230011,256.230011c0,140.579987 115.183998,255.769989 256.230011,255.769989l0,0z" clip-rule="evenodd"/>
  <path id="svg_3" fill-rule="evenodd" fill="#FFFFFF" d="m336.033997,175.957993l0,-48.073006l48.072998,0l0,48.073006l-48.072998,0zm-6.79599,48.065002l54.869019,0l0,144.210983c0,8.624023 -7.249023,15.873016 -15.873016,15.873016l-224.476013,0c-8.615997,0 -15.873993,-7.248993 -15.873993,-15.873016l0,-144.210983l54.869003,0c-4.529999,9.975998 -6.796005,20.412003 -6.796005,32.207016c0,43.979004 35.824005,79.803986 80.272003,79.803986c43.979004,0 79.803986,-35.824005 79.803986,-79.803986c0.001007,-11.795013 -2.263,-22.231018 -6.794983,-32.207016l0,0zm87.070007,-96.137993c0,-17.686005 -14.515015,-31.746002 -32.200012,-31.746002l-256.223,0c-17.686005,0 -31.746002,14.060997 -31.746002,31.746002l0,256.223c0,17.685974 14.060997,32.199982 31.746002,32.199982l256.223,0c17.685974,0 32.199982,-14.514984 32.199982,-32.199982l0,-256.223l0.000031,0zm-160.078003,80.264992c26.294006,0 47.604004,21.317993 47.604004,48.080994c0,26.294006 -21.311005,47.604004 -47.604004,47.604004c-26.763,0 -48.080994,-21.311005 -48.080994,-47.604004c0.000977,-26.762985 21.318985,-48.080994 48.080994,-48.080994l0,0z" clip-rule="evenodd"/>
 </g>
</svg>